<svg version="1.1" id="Layer_1" xmlns="http://www.w3.org/2000/svg" x="0" y="0" viewBox="0 0 256 256" style="enable-background:new 0 0 256 256" xml:space="preserve"><style>.st0{fill:#4671c6}.st3{fill:#a4c9ff}.st4{fill:#3762cc}.st5{fill:#e0ebfc}.st7{fill:#b9befc}</style><path class="st3" d="M178.346 248.616H77.654a7.039 7.039 0 0 1 0-14.078h100.692a7.039 7.039 0 0 1 0 14.078zM232.568 207.378H23.432c-5.634 0-10.202-4.567-10.202-10.202V64.553c0-5.634 4.567-10.202 10.202-10.202h209.137c5.634 0 10.202 4.567 10.202 10.202v132.623c-.001 5.634-4.568 10.202-10.203 10.202z"/><path d="M25.982 190.8V70.929a3.826 3.826 0 0 1 3.826-3.826h196.384a3.826 3.826 0 0 1 3.826 3.826V190.8a3.826 3.826 0 0 1-3.826 3.826H29.808a3.826 3.826 0 0 1-3.826-3.826z" style="fill:#6bdddd"/><path class="st5" d="M105.684 207.378h44.633v27.16h-44.633z"/><path class="st4" d="M178.346 250.615H77.654c-4.984 0-9.039-4.055-9.039-9.039s4.055-9.039 9.039-9.039h100.691c4.984 0 9.039 4.055 9.039 9.039s-4.054 9.039-9.038 9.039zM77.654 236.537c-2.778 0-5.039 2.261-5.039 5.039s2.261 5.039 5.039 5.039h100.691c2.778 0 5.039-2.261 5.039-5.039s-2.261-5.039-5.039-5.039H77.654zM232.568 209.378H23.432c-6.729 0-12.202-5.474-12.202-12.202V64.553c0-6.729 5.474-12.202 12.202-12.202h209.137c6.729 0 12.202 5.474 12.202 12.202v132.623c0 6.728-5.474 12.202-12.203 12.202zM23.432 56.351c-4.522 0-8.202 3.68-8.202 8.202v132.623c0 4.522 3.68 8.202 8.202 8.202h209.137c4.522 0 8.202-3.68 8.202-8.202V64.553c0-4.522-3.68-8.202-8.202-8.202H23.432z"/><path class="st4" d="M150.316 236.537h-44.633a2 2 0 0 1-2-2v-27.159a2 2 0 0 1 2-2h44.633a2 2 0 0 1 2 2v27.159a2 2 0 0 1-2 2zm-42.632-4h40.633v-23.159h-40.633v23.159zM226.192 196.626H29.808a5.832 5.832 0 0 1-5.825-5.826V70.929a5.831 5.831 0 0 1 5.825-5.825h196.385a5.831 5.831 0 0 1 5.825 5.825V190.8a5.833 5.833 0 0 1-5.826 5.826zM29.808 69.104a1.826 1.826 0 0 0-1.825 1.825V190.8c0 1.007.818 1.826 1.825 1.826h196.385a1.827 1.827 0 0 0 1.825-1.826V70.929a1.826 1.826 0 0 0-1.825-1.825H29.808z"/><path class="st0" d="M128 155.538H43.427a3.677 3.677 0 0 1-3.677-3.677V42.835a3.677 3.677 0 0 1 3.677-3.677h78.001A6.572 6.572 0 0 1 128 45.73v109.808zM128 155.538h84.573a3.677 3.677 0 0 0 3.677-3.677V42.835a3.677 3.677 0 0 0-3.677-3.677h-78.001A6.572 6.572 0 0 0 128 45.73v109.808z"/><path class="st4" d="M128 157.538H43.427a5.684 5.684 0 0 1-5.677-5.678V42.835a5.684 5.684 0 0 1 5.677-5.677h78.001c4.727 0 8.572 3.846 8.572 8.572v109.808a2 2 0 0 1-2 2zM43.427 41.158c-.925 0-1.677.752-1.677 1.677V151.86a1.68 1.68 0 0 0 1.677 1.678H126V45.73a4.577 4.577 0 0 0-4.572-4.572H43.427z"/><path class="st4" d="M212.573 157.538H128a2 2 0 0 1-2-2V45.73c0-4.727 3.846-8.572 8.572-8.572h78.001a5.684 5.684 0 0 1 5.677 5.677V151.86a5.684 5.684 0 0 1-5.677 5.678zm-82.573-4h82.573a1.68 1.68 0 0 0 1.677-1.678V42.835c0-.925-.752-1.677-1.677-1.677h-78.001A4.577 4.577 0 0 0 130 45.73v107.808z"/><path class="st7" d="M201.542 33.21v6.067H54.458V33.21c-5.638.613-5.963 6.067-5.963 6.067v110.312h159.01V39.277c-.001 0-.325-5.454-5.963-6.067z"/><path class="st4" d="M207.505 151.59H48.495a2 2 0 0 1-2-2V39.277c0-.04.001-.079.004-.119.146-2.47 1.955-7.308 7.743-7.937a1.997 1.997 0 0 1 2.216 1.988v4.067h143.084V33.21a1.997 1.997 0 0 1 2.216-1.988c5.788.629 7.597 5.467 7.743 7.937.003.04.004.079.004.119V149.59a2 2 0 0 1-2 2zm-157.01-4h155.01V39.355c-.038-.395-.304-2.295-1.963-3.398v3.32a2 2 0 0 1-2 2H54.458a2 2 0 0 1-2-2v-3.324c-1.69 1.117-1.933 3.056-1.963 3.396V147.59z"/><path class="st5" d="M128 149.59H54.458V33.21h67.499A6.044 6.044 0 0 1 128 39.253V149.59zM128 149.59h73.542V33.21h-67.499A6.044 6.044 0 0 0 128 39.253V149.59z"/><path class="st4" d="M128 151.59H54.458a2 2 0 0 1-2-2V33.21a2 2 0 0 1 2-2h67.499c4.435 0 8.043 3.608 8.043 8.043V149.59a2 2 0 0 1-2 2zm-71.542-4H126V39.253a4.047 4.047 0 0 0-4.043-4.043H56.458v112.38z"/><path class="st4" d="M201.542 151.59H128a2 2 0 0 1-2-2V39.253c0-4.435 3.608-8.043 8.043-8.043h67.499a2 2 0 0 1 2 2v116.38a2 2 0 0 1-2 2zm-71.542-4h69.542V35.21h-65.499A4.047 4.047 0 0 0 130 39.253V147.59z"/><path class="st7" d="M122.037 143.641H54.458c-5.638.601-5.963 5.948-5.963 5.948h79.504c.001.001-.324-5.347-5.962-5.948zM201.542 143.641h-67.579c-5.638.601-5.963 5.948-5.963 5.948h79.505c-.001.001-.325-5.347-5.963-5.948z"/><path class="st4" d="M128 151.59H48.495a2 2 0 0 1-1.996-2.121c.147-2.434 1.957-7.199 7.747-7.815.07-.008.142-.012.212-.012h67.579c.07 0 .142.004.212.012 5.791.616 7.6 5.382 7.747 7.815A2.002 2.002 0 0 1 128 151.59zm-76.771-4h74.051c-.567-.879-1.572-1.731-3.356-1.948H54.571c-1.769.215-2.773 1.074-3.342 1.948z"/><path class="st4" d="M207.505 151.59H128a2 2 0 0 1-1.996-2.121c.147-2.434 1.956-7.199 7.747-7.815.07-.008.142-.012.212-.012h67.579c.07 0 .142.004.212.012 5.79.616 7.6 5.382 7.747 7.815a2 2 0 0 1-1.996 2.121zm-76.783-4h74.063c-.566-.879-1.572-1.731-3.355-1.948h-67.353c-1.783.216-2.789 1.068-3.355 1.948z"/><path class="st7" d="M191.859 54.801h-52.215a2.573 2.573 0 1 1 0-5.148h52.215a2.574 2.574 0 0 1 0 5.148zM191.859 69.509h-52.215a2.573 2.573 0 1 1 0-5.148h52.215a2.574 2.574 0 0 1 0 5.148zM191.859 113.634h-52.215a2.573 2.573 0 1 1 0-5.148h52.215c3.423 0 3.429 5.148 0 5.148zM191.859 128.343h-52.215a2.573 2.573 0 1 1 0-5.148h52.215a2.575 2.575 0 0 1 0 5.148zM117.336 54.801H92.884a2.573 2.573 0 1 1 0-5.148h24.453a2.575 2.575 0 0 1-.001 5.148zM117.336 69.509H92.884a2.573 2.573 0 1 1 0-5.148h24.453a2.575 2.575 0 0 1-.001 5.148zM117.336 84.218H65.122a2.573 2.573 0 1 1 0-5.148h52.215a2.573 2.573 0 0 1 2.574 2.574 2.576 2.576 0 0 1-2.575 2.574zM117.336 98.926H65.122a2.573 2.573 0 1 1 0-5.148h52.215a2.575 2.575 0 0 1-.001 5.148zM118.44 128.343H64.019a1.472 1.472 0 0 1-1.471-1.471v-16.915c0-.812.659-1.471 1.471-1.471h54.421c.812 0 1.471.659 1.471 1.471v16.915a1.472 1.472 0 0 1-1.471 1.471zM85.346 69.509H64.019a1.472 1.472 0 0 1-1.471-1.471V51.124c0-.812.659-1.471 1.471-1.471h21.327c.812 0 1.471.659 1.471 1.471v16.915a1.47 1.47 0 0 1-1.471 1.47zM192.962 98.926h-54.421a1.472 1.472 0 0 1-1.471-1.471V80.541c0-.812.659-1.471 1.471-1.471h54.421c.812 0 1.471.659 1.471 1.471v16.915c0 .811-.659 1.47-1.471 1.47z"/><path d="M167.17 40.809h-7.933a32.628 32.628 0 0 0-2.26-5.44c5.896-5.896 6.787-6.302 6.787-8.446 0-1.07-.417-2.075-1.173-2.831l-8.124-8.124a4.002 4.002 0 0 0-5.663 0l-5.614 5.615a32.668 32.668 0 0 0-5.44-2.261v-7.933a4.008 4.008 0 0 0-4.004-4.004h-11.49a4.008 4.008 0 0 0-4.004 4.004v7.933a32.618 32.618 0 0 0-5.44 2.261c-5.892-5.892-6.3-6.787-8.445-6.787-1.07 0-2.075.417-2.832 1.173-12.092 12.092-12.07 9.841-2.51 19.402a32.628 32.628 0 0 0-2.26 5.44H88.83a4.008 4.008 0 0 0-4.004 4.004v11.49a4.008 4.008 0 0 0 4.004 4.004h7.933a32.628 32.628 0 0 0 2.26 5.44c-5.892 5.892-6.787 6.3-6.787 8.446 0 2.169.563 2.221 9.297 10.956a3.98 3.98 0 0 0 2.832 1.173 3.979 3.979 0 0 0 2.831-1.173l5.614-5.615a32.668 32.668 0 0 0 5.44 2.261v7.933a4.008 4.008 0 0 0 4.004 4.004h11.49a4.008 4.008 0 0 0 4.004-4.004v-7.933a32.618 32.618 0 0 0 5.44-2.261c5.892 5.892 6.3 6.787 8.445 6.787 1.07 0 2.075-.417 2.832-1.173l8.124-8.124a4.001 4.001 0 0 0 0-5.663l-5.614-5.615a32.628 32.628 0 0 0 2.26-5.44h7.933a4.008 4.008 0 0 0 4.004-4.004v-11.49a4.006 4.006 0 0 0-4.002-4.005zm-19.944 9.749c0 10.602-8.625 19.226-19.226 19.226s-19.226-8.625-19.226-19.226c0-10.601 8.625-19.226 19.226-19.226s19.226 8.624 19.226 19.226z" style="fill:#ffea94"/><path class="st3" d="M128 27.833c-12.53 0-22.724 10.194-22.724 22.724 0 12.531 10.194 22.725 22.724 22.725 12.531 0 22.725-10.194 22.725-22.725 0-12.529-10.194-22.724-22.725-22.724zm0 34.638c-6.569 0-11.914-5.345-11.914-11.914S121.43 38.644 128 38.644c6.569 0 11.914 5.343 11.914 11.913S134.569 62.471 128 62.471z"/><path class="st4" d="M133.745 95.731h-11.49a6.01 6.01 0 0 1-6.004-6.004V83.23a34.313 34.313 0 0 1-3.044-1.265l-4.597 4.597c-1.134 1.134-2.642 1.759-4.245 1.759s-3.111-.625-4.245-1.759c-1.646-1.646-3.001-2.982-4.116-4.083-4.999-4.933-5.768-5.69-5.768-8.287 0-2.598.988-3.568 4.665-7.18.5-.492 1.062-1.043 1.689-1.665a34.526 34.526 0 0 1-1.264-3.041H88.83a6.01 6.01 0 0 1-6.004-6.004V44.813a6.01 6.01 0 0 1 6.004-6.005h6.497a34.159 34.159 0 0 1 1.263-3.038c-.436-.429-.847-.831-1.234-1.209-3.367-3.292-5.222-5.104-5.223-7.575-.001-2.636 2.062-4.652 6.579-9.072a433.434 433.434 0 0 0 3.408-3.361 5.96 5.96 0 0 1 4.245-1.758c2.599 0 3.569.988 7.181 4.664.491.501 1.042 1.062 1.664 1.689a34.653 34.653 0 0 1 3.041-1.264v-6.496a6.01 6.01 0 0 1 6.004-6.004h11.49a6.01 6.01 0 0 1 6.004 6.004v6.496c1.032.373 2.05.795 3.044 1.265l4.597-4.597a6.008 6.008 0 0 1 8.49 0l8.124 8.125a5.959 5.959 0 0 1 1.76 4.245c0 2.598-.988 3.568-4.665 7.181-.501.492-1.062 1.043-1.689 1.665a34.33 34.33 0 0 1 1.264 3.04h6.497a6.01 6.01 0 0 1 6.004 6.005v11.489a6.01 6.01 0 0 1-6.004 6.004h-6.497a34.738 34.738 0 0 1-1.265 3.045l4.596 4.596a5.967 5.967 0 0 1 1.761 4.245 5.964 5.964 0 0 1-1.761 4.247l-8.124 8.123a5.965 5.965 0 0 1-4.245 1.759c-2.598 0-3.568-.987-7.177-4.661a546.866 546.866 0 0 0-1.668-1.692c-.993.469-2.01.892-3.041 1.263v6.497a6.012 6.012 0 0 1-6.005 6.003zm-20.933-18.197c.316 0 .636.075.93.229a30.612 30.612 0 0 0 5.106 2.121 2 2 0 0 1 1.403 1.909v7.934c0 1.104.899 2.004 2.004 2.004h11.49a2.007 2.007 0 0 0 2.004-2.004v-7.934a2 2 0 0 1 1.403-1.909 30.64 30.64 0 0 0 5.106-2.121 2.001 2.001 0 0 1 2.345.356c1.068 1.067 1.956 1.972 2.708 2.737 3.403 3.464 3.508 3.464 4.323 3.464a1.99 1.99 0 0 0 1.417-.587l8.124-8.124c.38-.38.589-.883.589-1.418 0-.534-.209-1.037-.589-1.416l-5.614-5.615a1.998 1.998 0 0 1-.355-2.346 30.752 30.752 0 0 0 2.121-5.105 2 2 0 0 1 1.909-1.403h7.934a2.007 2.007 0 0 0 2.004-2.004V44.813a2.007 2.007 0 0 0-2.004-2.005h-7.934a2 2 0 0 1-1.909-1.403 30.572 30.572 0 0 0-2.121-5.104 2 2 0 0 1 .355-2.346c1.066-1.066 1.97-1.954 2.733-2.705 3.469-3.407 3.469-3.512 3.469-4.327a1.99 1.99 0 0 0-.587-1.416l-8.125-8.126c-.758-.758-2.076-.758-2.834 0l-5.614 5.615a2 2 0 0 1-2.345.356 30.8 30.8 0 0 0-5.106-2.122 2 2 0 0 1-1.403-1.909v-7.933a2.007 2.007 0 0 0-2.004-2.004h-11.49a2.007 2.007 0 0 0-2.004 2.004v7.933a2 2 0 0 1-1.402 1.908 30.781 30.781 0 0 0-5.106 2.122 1.998 1.998 0 0 1-2.346-.355c-1.066-1.066-1.953-1.97-2.704-2.733-3.406-3.468-3.511-3.468-4.327-3.468a1.99 1.99 0 0 0-1.417.586c-1.28 1.281-2.426 2.401-3.439 3.393-3.004 2.938-5.376 5.26-5.376 6.212 0 .787 1.862 2.607 4.019 4.715.689.674 1.452 1.42 2.287 2.255.62.619.764 1.57.355 2.346a30.681 30.681 0 0 0-2.121 5.105 2.002 2.002 0 0 1-1.909 1.402H88.83a2.007 2.007 0 0 0-2.004 2.005v11.489c0 1.104.899 2.004 2.004 2.004h7.934a2 2 0 0 1 1.909 1.403 30.681 30.681 0 0 0 2.121 5.105 2 2 0 0 1-.355 2.346c-1.066 1.066-1.97 1.954-2.734 2.705-3.468 3.406-3.468 3.511-3.468 4.326 0 .854 0 .924 4.577 5.439 1.12 1.106 2.481 2.449 4.135 4.103.758.758 2.076.758 2.834 0l5.614-5.614a1.994 1.994 0 0 1 1.415-.586z"/><circle class="st5" cx="128" cy="50.472" r="15.802"/><path d="M121.229 42.231v15.442a1.49 1.49 0 0 0 2.207 1.305l14.038-7.721a1.49 1.49 0 0 0 0-2.61l-14.038-7.721a1.49 1.49 0 0 0-2.207 1.305z" style="fill:#f9a7a7"/></svg>